<svg width="233" height="102" viewBox="0 0 233 102" fill="none" xmlns="http://www.w3.org/2000/svg">
<path d="M0 8C0 3.58172 3.58172 0 8 0H225C229.418 0 233 3.58172 233 8V94C233 98.4183 229.418 102 225 102H8C3.58173 102 0 98.4183 0 94V8Z" fill="#016AE7"/>
<path d="M25.4996 37H28.1332V30.8636H31.7127C35.761 30.8636 37.7639 28.4176 37.7639 25.196C37.7639 21.983 35.7781 19.5455 31.7212 19.5455H25.4996V37ZM28.1332 28.6307V21.804H31.44C34.0479 21.804 35.1133 23.2188 35.1133 25.196C35.1133 27.1733 34.0479 28.6307 31.4741 28.6307H28.1332ZM40.3967 37H42.945V29.0057C42.945 27.2926 44.266 26.0568 46.0728 26.0568C46.6012 26.0568 47.1978 26.1506 47.4023 26.2102V23.7727C47.1467 23.7386 46.6438 23.7131 46.32 23.7131C44.7859 23.7131 43.4734 24.5824 42.9961 25.9886H42.8597V23.9091H40.3967V37ZM49.3576 37H51.9059V23.9091H49.3576V37ZM50.6445 21.8892C51.5224 21.8892 52.2553 21.2074 52.2553 20.3722C52.2553 19.5369 51.5224 18.8466 50.6445 18.8466C49.7582 18.8466 49.0337 19.5369 49.0337 20.3722C49.0337 21.2074 49.7582 21.8892 50.6445 21.8892ZM55.0842 37H57.6325V28.929C57.6325 27.1648 58.8683 25.9375 60.3171 25.9375C61.7319 25.9375 62.712 26.875 62.712 28.2983V37H65.2518V28.6562C65.2518 27.0795 66.2148 25.9375 67.8768 25.9375C69.2234 25.9375 70.3313 26.6875 70.3313 28.4602V37H72.8796V28.2216C72.8796 25.2301 71.2092 23.7386 68.8398 23.7386C66.9563 23.7386 65.5415 24.642 64.9109 26.0398H64.7745C64.2035 24.608 63.0018 23.7386 61.2546 23.7386C59.5245 23.7386 58.2376 24.5994 57.6921 26.0398H57.5302V23.9091H55.0842V37ZM81.6871 37.2642C84.5423 37.2642 86.5621 35.858 87.1417 33.7273L84.7298 33.2926C84.2695 34.5284 83.1616 35.1591 81.7127 35.1591C79.5309 35.1591 78.065 33.7443 77.9968 31.2216H87.3036V30.3182C87.3036 25.5881 84.4741 23.7386 81.5082 23.7386C77.8604 23.7386 75.457 26.517 75.457 30.5398C75.457 34.6051 77.8263 37.2642 81.6871 37.2642ZM78.0053 29.3125C78.1076 27.4545 79.4542 25.8438 81.5252 25.8438C83.5025 25.8438 84.7979 27.3097 84.8065 29.3125H78.0053ZM89.881 37H92.4293V23.9091H89.881V37ZM91.168 21.8892C92.0458 21.8892 92.7788 21.2074 92.7788 20.3722C92.7788 19.5369 92.0458 18.8466 91.168 18.8466C90.2816 18.8466 89.5572 19.5369 89.5572 20.3722C89.5572 21.2074 90.2816 21.8892 91.168 21.8892ZM95.6076 37H98.1559V29.0057C98.1559 27.2926 99.4769 26.0568 101.284 26.0568C101.812 26.0568 102.409 26.1506 102.613 26.2102V23.7727C102.358 23.7386 101.855 23.7131 101.531 23.7131C99.9968 23.7131 98.6843 24.5824 98.207 25.9886H98.0707V23.9091H95.6076V37ZM108.261 37.2898C110.426 37.2898 111.645 36.1903 112.13 35.2102H112.233V37H114.721V28.3068C114.721 24.4972 111.721 23.7386 109.642 23.7386C107.272 23.7386 105.091 24.6932 104.238 27.0795L106.633 27.625C107.008 26.696 107.963 25.8011 109.676 25.8011C111.321 25.8011 112.164 26.6619 112.164 28.1449V28.2045C112.164 29.1335 111.21 29.1165 108.858 29.3892C106.377 29.679 103.838 30.3267 103.838 33.3011C103.838 35.875 105.772 37.2898 108.261 37.2898ZM108.815 35.2443C107.375 35.2443 106.335 34.5966 106.335 33.3352C106.335 31.9716 107.545 31.4858 109.02 31.2898C109.846 31.179 111.806 30.9574 112.173 30.5909V32.2784C112.173 33.8295 110.937 35.2443 108.815 35.2443ZM129.609 37.2642C132.464 37.2642 134.484 35.858 135.064 33.7273L132.652 33.2926C132.191 34.5284 131.083 35.1591 129.635 35.1591C127.453 35.1591 125.987 33.7443 125.919 31.2216H135.225V30.3182C135.225 25.5881 132.396 23.7386 129.43 23.7386C125.782 23.7386 123.379 26.517 123.379 30.5398C123.379 34.6051 125.748 37.2642 129.609 37.2642ZM125.927 29.3125C126.029 27.4545 127.376 25.8438 129.447 25.8438C131.424 25.8438 132.72 27.3097 132.728 29.3125H125.927ZM140.351 29.2273C140.351 27.1392 141.63 25.946 143.402 25.946C145.132 25.946 146.181 27.0795 146.181 28.9801V37H148.729V28.6733C148.729 25.4347 146.948 23.7386 144.272 23.7386C142.303 23.7386 141.016 24.6506 140.411 26.0398H140.249V23.9091H137.803V37H140.351V29.2273ZM158.007 23.9091H155.323V20.7727H152.775V23.9091H150.857V25.9545H152.775V33.6847C152.766 36.0625 154.581 37.2131 156.593 37.1705C157.402 37.1619 157.948 37.0085 158.246 36.8977L157.786 34.7926C157.615 34.8267 157.3 34.9034 156.891 34.9034C156.064 34.9034 155.323 34.6307 155.323 33.1562V25.9545H158.007V23.9091ZM160.576 37H163.125V29.0057C163.125 27.2926 164.446 26.0568 166.252 26.0568C166.781 26.0568 167.377 26.1506 167.582 26.2102V23.7727C167.326 23.7386 166.824 23.7131 166.5 23.7131C164.966 23.7131 163.653 24.5824 163.176 25.9886H163.039V23.9091H160.576V37ZM174.711 37.2642C177.566 37.2642 179.586 35.858 180.165 33.7273L177.753 33.2926C177.293 34.5284 176.185 35.1591 174.736 35.1591C172.554 35.1591 171.088 33.7443 171.02 31.2216H180.327V30.3182C180.327 25.5881 177.498 23.7386 174.532 23.7386C170.884 23.7386 168.48 26.517 168.48 30.5398C168.48 34.6051 170.85 37.2642 174.711 37.2642ZM171.029 29.3125C171.131 27.4545 172.478 25.8438 174.549 25.8438C176.526 25.8438 177.821 27.3097 177.83 29.3125H171.029ZM188.393 42.1818C191.725 42.1818 194.299 40.6562 194.299 37.2898V23.9091H191.802V26.0312H191.615C191.163 25.2216 190.26 23.7386 187.822 23.7386C184.66 23.7386 182.333 26.2358 182.333 30.4034C182.333 34.5795 184.711 36.804 187.805 36.804C190.208 36.804 191.137 35.4489 191.598 34.6136H191.76V37.1875C191.76 39.2415 190.353 40.1278 188.419 40.1278C186.297 40.1278 185.47 39.0625 185.018 38.3125L182.828 39.2159C183.518 40.8182 185.265 42.1818 188.393 42.1818ZM188.368 34.6903C186.092 34.6903 184.907 32.9432 184.907 30.3693C184.907 27.8551 186.066 25.9034 188.368 25.9034C190.592 25.9034 191.785 27.7188 191.785 30.3693C191.785 33.071 190.566 34.6903 188.368 34.6903ZM201.277 37.2898C203.441 37.2898 204.66 36.1903 205.146 35.2102H205.248V37H207.737V28.3068C207.737 24.4972 204.737 23.7386 202.657 23.7386C200.288 23.7386 198.106 24.6932 197.254 27.0795L199.649 27.625C200.024 26.696 200.978 25.8011 202.691 25.8011C204.336 25.8011 205.18 26.6619 205.18 28.1449V28.2045C205.18 29.1335 204.225 29.1165 201.873 29.3892C199.393 29.679 196.853 30.3267 196.853 33.3011C196.853 35.875 198.788 37.2898 201.277 37.2898ZM201.831 35.2443C200.39 35.2443 199.35 34.5966 199.35 33.3352C199.35 31.9716 200.561 31.4858 202.035 31.2898C202.862 31.179 204.822 30.9574 205.189 30.5909V32.2784C205.189 33.8295 203.953 35.2443 201.831 35.2443Z" fill="white"/>
<path d="M71.3097 70H78.6733V68.4886H73.0653V64.9261H78.2244V63.4205H73.0653V59.875H78.6051V58.3636H71.3097V70ZM82.2628 58.3636H80.5639V70H82.2628V58.3636ZM87.9744 70.1761C90.4347 70.1761 92.0426 68.375 92.0426 65.6761C92.0426 62.9602 90.4347 61.1591 87.9744 61.1591C85.5142 61.1591 83.9062 62.9602 83.9062 65.6761C83.9062 68.375 85.5142 70.1761 87.9744 70.1761ZM87.9801 68.75C86.3722 68.75 85.6222 67.3466 85.6222 65.6705C85.6222 64 86.3722 62.5795 87.9801 62.5795C89.5767 62.5795 90.3267 64 90.3267 65.6705C90.3267 67.3466 89.5767 68.75 87.9801 68.75ZM95.3878 64.8182C95.3878 63.4261 96.2401 62.6307 97.4219 62.6307C98.5753 62.6307 99.2741 63.3864 99.2741 64.6534V70H100.973V64.4489C100.973 62.2898 99.7855 61.1591 98.0014 61.1591C96.6889 61.1591 95.831 61.767 95.4276 62.6932H95.3196V61.2727H93.6889V70H95.3878V64.8182ZM110.747 70.1761C112.651 70.1761 113.997 69.2386 114.384 67.8182L112.776 67.5284C112.469 68.3523 111.73 68.7727 110.764 68.7727C109.31 68.7727 108.332 67.8295 108.287 66.1477H114.491V65.5455C114.491 62.392 112.605 61.1591 110.628 61.1591C108.196 61.1591 106.594 63.0114 106.594 65.6932C106.594 68.4034 108.173 70.1761 110.747 70.1761ZM108.293 64.875C108.361 63.6364 109.259 62.5625 110.639 62.5625C111.957 62.5625 112.821 63.5398 112.827 64.875H108.293ZM120.247 70H122.003V65.9091H124.389C127.088 65.9091 128.423 64.2784 128.423 62.1307C128.423 59.9886 127.099 58.3636 124.395 58.3636H120.247V70ZM122.003 64.4205V59.8693H124.207C125.946 59.8693 126.656 60.8125 126.656 62.1307C126.656 63.4489 125.946 64.4205 124.23 64.4205H122.003ZM133.747 70.1761C135.651 70.1761 136.997 69.2386 137.384 67.8182L135.776 67.5284C135.469 68.3523 134.73 68.7727 133.764 68.7727C132.31 68.7727 131.332 67.8295 131.287 66.1477H137.491V65.5455C137.491 62.392 135.605 61.1591 133.628 61.1591C131.196 61.1591 129.594 63.0114 129.594 65.6932C129.594 68.4034 131.173 70.1761 133.747 70.1761ZM131.293 64.875C131.361 63.6364 132.259 62.5625 133.639 62.5625C134.957 62.5625 135.821 63.5398 135.827 64.875H131.293ZM142.393 70.1705C143.984 70.1705 144.609 69.1989 144.916 68.642H145.058V70H146.717V58.3636H145.018V62.6875H144.916C144.609 62.1477 144.03 61.1591 142.405 61.1591C140.297 61.1591 138.746 62.8239 138.746 65.6534C138.746 68.4773 140.274 70.1705 142.393 70.1705ZM142.768 68.7216C141.251 68.7216 140.462 67.3864 140.462 65.6364C140.462 63.9034 141.234 62.6023 142.768 62.6023C144.251 62.6023 145.047 63.8125 145.047 65.6364C145.047 67.4716 144.234 68.7216 142.768 68.7216ZM148.892 70H150.591V64.6705C150.591 63.5284 151.472 62.7045 152.676 62.7045C153.028 62.7045 153.426 62.767 153.562 62.8068V61.1818C153.392 61.1591 153.057 61.142 152.841 61.142C151.818 61.142 150.943 61.7216 150.625 62.6591H150.534V61.2727H148.892V70ZM158.146 70.1761C160.607 70.1761 162.214 68.375 162.214 65.6761C162.214 62.9602 160.607 61.1591 158.146 61.1591C155.686 61.1591 154.078 62.9602 154.078 65.6761C154.078 68.375 155.686 70.1761 158.146 70.1761ZM158.152 68.75C156.544 68.75 155.794 67.3466 155.794 65.6705C155.794 64 156.544 62.5795 158.152 62.5795C159.749 62.5795 160.499 64 160.499 65.6705C160.499 67.3466 159.749 68.75 158.152 68.75Z" fill="white"/>
</svg>
