<svg width="233" height="102" viewBox="0 0 233 102" fill="none" xmlns="http://www.w3.org/2000/svg">
<path d="M0 8C0 3.58172 3.58172 0 8 0H225C229.418 0 233 3.58172 233 8V94C233 98.4183 229.418 102 225 102H8C3.58173 102 0 98.4183 0 94V8Z" fill="#016AE7"/>
<path d="M31.3555 24.1307H33.8952C33.8185 21.3352 31.3469 19.3068 27.8015 19.3068C24.2987 19.3068 21.614 21.3097 21.614 24.3182C21.614 26.7472 23.3526 28.1705 26.1566 28.929L28.2191 29.4915C30.0856 29.9858 31.5259 30.5994 31.5259 32.1506C31.5259 33.8551 29.8981 34.9801 27.6566 34.9801C25.6282 34.9801 23.9407 34.0767 23.7873 32.1761H21.1452C21.3157 35.3381 23.7617 37.2898 27.6737 37.2898C31.7731 37.2898 34.1339 35.1335 34.1339 32.1761C34.1339 29.0312 31.3299 27.8125 29.114 27.267L27.4094 26.8239C26.0458 26.4744 24.2305 25.8352 24.239 24.1648C24.239 22.6818 25.5941 21.5824 27.7418 21.5824C29.7447 21.5824 31.168 22.5199 31.3555 24.1307ZM42.4684 37.2642C45.3235 37.2642 47.3434 35.858 47.9229 33.7273L45.511 33.2926C45.0508 34.5284 43.9428 35.1591 42.494 35.1591C40.3121 35.1591 38.8462 33.7443 38.7781 31.2216H48.0849V30.3182C48.0849 25.5881 45.2553 23.7386 42.2894 23.7386C38.6417 23.7386 36.2383 26.517 36.2383 30.5398C36.2383 34.6051 38.6076 37.2642 42.4684 37.2642ZM38.7866 29.3125C38.8888 27.4545 40.2354 25.8438 42.3065 25.8438C44.2837 25.8438 45.5792 27.3097 45.5877 29.3125H38.7866ZM56.1509 42.1818C59.4833 42.1818 62.0572 40.6562 62.0572 37.2898V23.9091H59.56V26.0312H59.3725C58.9208 25.2216 58.0174 23.7386 55.5799 23.7386C52.418 23.7386 50.0913 26.2358 50.0913 30.4034C50.0913 34.5795 52.4691 36.804 55.5629 36.804C57.9663 36.804 58.8952 35.4489 59.3555 34.6136H59.5174V37.1875C59.5174 39.2415 58.1112 40.1278 56.1765 40.1278C54.0543 40.1278 53.2276 39.0625 52.7759 38.3125L50.5856 39.2159C51.2759 40.8182 53.0231 42.1818 56.1509 42.1818ZM56.1254 34.6903C53.8498 34.6903 52.6651 32.9432 52.6651 30.3693C52.6651 27.8551 53.8242 25.9034 56.1254 25.9034C58.3498 25.9034 59.543 27.7188 59.543 30.3693C59.543 33.071 58.3242 34.6903 56.1254 34.6903ZM73.5174 31.571C73.5259 33.7955 71.8725 34.8523 70.4407 34.8523C68.864 34.8523 67.7731 33.7102 67.7731 31.929V23.9091H65.2248V32.2358C65.2248 35.483 67.006 37.1705 69.5202 37.1705C71.489 37.1705 72.8271 36.1307 73.4322 34.733H73.5685V37H76.0742V23.9091H73.5174V31.571ZM81.7965 29.2273C81.7965 27.1392 83.0749 25.946 84.8477 25.946C86.5778 25.946 87.6261 27.0795 87.6261 28.9801V37H90.1744V28.6733C90.1744 25.4347 88.3931 23.7386 85.717 23.7386C83.7482 23.7386 82.4613 24.6506 81.8562 26.0398H81.6942V23.9091H79.2482V37H81.7965V29.2273ZM98.2425 37.2557C100.629 37.2557 101.566 35.7983 102.027 34.9631H102.24V37H104.728V19.5455H102.18V26.0312H102.027C101.566 25.2216 100.697 23.7386 98.2596 23.7386C95.0977 23.7386 92.771 26.2358 92.771 30.4801C92.771 34.7159 95.0636 37.2557 98.2425 37.2557ZM98.805 35.0824C96.5295 35.0824 95.3448 33.0795 95.3448 30.4545C95.3448 27.8551 96.5039 25.9034 98.805 25.9034C101.029 25.9034 102.223 27.7188 102.223 30.4545C102.223 33.2074 101.004 35.0824 98.805 35.0824ZM111.925 37.2898C114.09 37.2898 115.309 36.1903 115.794 35.2102H115.897V37H118.385V28.3068C118.385 24.4972 115.385 23.7386 113.306 23.7386C110.936 23.7386 108.755 24.6932 107.902 27.0795L110.297 27.625C110.672 26.696 111.627 25.8011 113.34 25.8011C114.985 25.8011 115.828 26.6619 115.828 28.1449V28.2045C115.828 29.1335 114.874 29.1165 112.522 29.3892C110.042 29.679 107.502 30.3267 107.502 33.3011C107.502 35.875 109.436 37.2898 111.925 37.2898ZM112.479 35.2443C111.039 35.2443 109.999 34.5966 109.999 33.3352C109.999 31.9716 111.209 31.4858 112.684 31.2898C113.51 31.179 115.471 30.9574 115.837 30.5909V32.2784C115.837 33.8295 114.601 35.2443 112.479 35.2443ZM133.273 37.2642C136.128 37.2642 138.148 35.858 138.728 33.7273L136.316 33.2926C135.855 34.5284 134.748 35.1591 133.299 35.1591C131.117 35.1591 129.651 33.7443 129.583 31.2216H138.89V30.3182C138.89 25.5881 136.06 23.7386 133.094 23.7386C129.446 23.7386 127.043 26.517 127.043 30.5398C127.043 34.6051 129.412 37.2642 133.273 37.2642ZM129.591 29.3125C129.694 27.4545 131.04 25.8438 133.111 25.8438C135.088 25.8438 136.384 27.3097 136.392 29.3125H129.591ZM144.015 29.2273C144.015 27.1392 145.294 25.946 147.066 25.946C148.797 25.946 149.845 27.0795 149.845 28.9801V37H152.393V28.6733C152.393 25.4347 150.612 23.7386 147.936 23.7386C145.967 23.7386 144.68 24.6506 144.075 26.0398H143.913V23.9091H141.467V37H144.015V29.2273ZM161.672 23.9091H158.987V20.7727H156.439V23.9091H154.521V25.9545H156.439V33.6847C156.43 36.0625 158.245 37.2131 160.257 37.1705C161.066 37.1619 161.612 37.0085 161.91 36.8977L161.45 34.7926C161.279 34.8267 160.964 34.9034 160.555 34.9034C159.728 34.9034 158.987 34.6307 158.987 33.1562V25.9545H161.672V23.9091ZM164.24 37H166.789V29.0057C166.789 27.2926 168.11 26.0568 169.917 26.0568C170.445 26.0568 171.042 26.1506 171.246 26.2102V23.7727C170.99 23.7386 170.488 23.7131 170.164 23.7131C168.63 23.7131 167.317 24.5824 166.84 25.9886H166.703V23.9091H164.24V37ZM178.375 37.2642C181.23 37.2642 183.25 35.858 183.829 33.7273L181.417 33.2926C180.957 34.5284 179.849 35.1591 178.4 35.1591C176.218 35.1591 174.752 33.7443 174.684 31.2216H183.991V30.3182C183.991 25.5881 181.162 23.7386 178.196 23.7386C174.548 23.7386 172.145 26.517 172.145 30.5398C172.145 34.6051 174.514 37.2642 178.375 37.2642ZM174.693 29.3125C174.795 27.4545 176.142 25.8438 178.213 25.8438C180.19 25.8438 181.485 27.3097 181.494 29.3125H174.693ZM192.057 42.1818C195.39 42.1818 197.963 40.6562 197.963 37.2898V23.9091H195.466V26.0312H195.279C194.827 25.2216 193.924 23.7386 191.486 23.7386C188.324 23.7386 185.998 26.2358 185.998 30.4034C185.998 34.5795 188.375 36.804 191.469 36.804C193.873 36.804 194.801 35.4489 195.262 34.6136H195.424V37.1875C195.424 39.2415 194.017 40.1278 192.083 40.1278C189.961 40.1278 189.134 39.0625 188.682 38.3125L186.492 39.2159C187.182 40.8182 188.929 42.1818 192.057 42.1818ZM192.032 34.6903C189.756 34.6903 188.571 32.9432 188.571 30.3693C188.571 27.8551 189.73 25.9034 192.032 25.9034C194.256 25.9034 195.449 27.7188 195.449 30.3693C195.449 33.071 194.23 34.6903 192.032 34.6903ZM204.941 37.2898C207.105 37.2898 208.324 36.1903 208.81 35.2102H208.912V37H211.401V28.3068C211.401 24.4972 208.401 23.7386 206.321 23.7386C203.952 23.7386 201.77 24.6932 200.918 27.0795L203.313 27.625C203.688 26.696 204.642 25.8011 206.355 25.8011C208 25.8011 208.844 26.6619 208.844 28.1449V28.2045C208.844 29.1335 207.89 29.1165 205.537 29.3892C203.057 29.679 200.517 30.3267 200.517 33.3011C200.517 35.875 202.452 37.2898 204.941 37.2898ZM205.495 35.2443C204.054 35.2443 203.015 34.5966 203.015 33.3352C203.015 31.9716 204.225 31.4858 205.699 31.2898C206.526 31.179 208.486 30.9574 208.853 30.5909V32.2784C208.853 33.8295 207.617 35.2443 205.495 35.2443Z" fill="white"/>
<path d="M82.1143 70H89.478V68.4886H83.87V64.9261H89.0291V63.4205H83.87V59.875H89.4098V58.3636H82.1143V70ZM93.0675 58.3636H91.3686V70H93.0675V58.3636ZM98.7791 70.1761C101.239 70.1761 102.847 68.375 102.847 65.6761C102.847 62.9602 101.239 61.1591 98.7791 61.1591C96.3189 61.1591 94.7109 62.9602 94.7109 65.6761C94.7109 68.375 96.3189 70.1761 98.7791 70.1761ZM98.7848 68.75C97.1768 68.75 96.4268 67.3466 96.4268 65.6705C96.4268 64 97.1768 62.5795 98.7848 62.5795C100.381 62.5795 101.131 64 101.131 65.6705C101.131 67.3466 100.381 68.75 98.7848 68.75ZM106.192 64.8182C106.192 63.4261 107.045 62.6307 108.227 62.6307C109.38 62.6307 110.079 63.3864 110.079 64.6534V70H111.778V64.4489C111.778 62.2898 110.59 61.1591 108.806 61.1591C107.494 61.1591 106.636 61.767 106.232 62.6932H106.124V61.2727H104.494V70H106.192V64.8182ZM117.927 70H124.955V68.4886H119.683V58.3636H117.927V70ZM126.572 70H128.271V61.2727H126.572V70ZM127.43 59.9261C128.015 59.9261 128.504 59.4716 128.504 58.9148C128.504 58.358 128.015 57.8977 127.43 57.8977C126.839 57.8977 126.356 58.358 126.356 58.9148C126.356 59.4716 126.839 59.9261 127.43 59.9261ZM130.306 70H132.005V64.6193C132.005 63.4432 132.829 62.625 133.795 62.625C134.738 62.625 135.391 63.25 135.391 64.1989V70H137.085V64.4375C137.085 63.3864 137.727 62.625 138.835 62.625C139.732 62.625 140.471 63.125 140.471 64.3068V70H142.17V64.1477C142.17 62.1534 141.056 61.1591 139.477 61.1591C138.221 61.1591 137.278 61.7614 136.857 62.6932H136.766C136.386 61.7386 135.585 61.1591 134.42 61.1591C133.266 61.1591 132.408 61.733 132.045 62.6932H131.937V61.2727H130.306V70ZM146.737 70.1932C148.18 70.1932 148.992 69.4602 149.316 68.8068H149.384V70H151.043V64.2045C151.043 61.6648 149.043 61.1591 147.657 61.1591C146.077 61.1591 144.623 61.7955 144.055 63.3864L145.651 63.75C145.901 63.1307 146.538 62.5341 147.68 62.5341C148.776 62.5341 149.339 63.108 149.339 64.0966V64.1364C149.339 64.7557 148.702 64.7443 147.134 64.9261C145.481 65.1193 143.788 65.5511 143.788 67.5341C143.788 69.25 145.077 70.1932 146.737 70.1932ZM147.106 68.8295C146.146 68.8295 145.452 68.3977 145.452 67.5568C145.452 66.6477 146.259 66.3239 147.242 66.1932C147.793 66.1193 149.1 65.9716 149.344 65.7273V66.8523C149.344 67.8864 148.521 68.8295 147.106 68.8295Z" fill="white"/>
</svg>
