<svg width="233" height="102" viewBox="0 0 233 102" fill="none" xmlns="http://www.w3.org/2000/svg">
<path d="M0 8C0 3.58172 3.58172 0 8 0H225C229.418 0 233 3.58172 233 8V94C233 98.4183 229.418 102 225 102H8C3.58173 102 0 98.4183 0 94V8Z" fill="#016AE7"/>
<path d="M25.424 21.8125H30.8615V37H33.4865V21.8125H38.9325V19.5455H25.424V21.8125ZM45.2067 37.2642C48.0618 37.2642 50.0817 35.858 50.6612 33.7273L48.2493 33.2926C47.7891 34.5284 46.6811 35.1591 45.2322 35.1591C43.0504 35.1591 41.5845 33.7443 41.5163 31.2216H50.8232V30.3182C50.8232 25.5881 47.9936 23.7386 45.0277 23.7386C41.38 23.7386 38.9766 26.517 38.9766 30.5398C38.9766 34.6051 41.3459 37.2642 45.2067 37.2642ZM41.5249 29.3125C41.6271 27.4545 42.9737 25.8438 45.0447 25.8438C47.022 25.8438 48.3175 27.3097 48.326 29.3125H41.5249ZM53.4006 37H55.9489V29.0057C55.9489 27.2926 57.2699 26.0568 59.0767 26.0568C59.6051 26.0568 60.2017 26.1506 60.4062 26.2102V23.7727C60.1506 23.7386 59.6477 23.7131 59.3239 23.7131C57.7898 23.7131 56.4773 24.5824 56 25.9886H55.8636V23.9091H53.4006V37ZM67.407 37.2642C70.5007 37.2642 72.5036 35.4062 72.7848 32.858H70.3047C69.9808 34.2727 68.8814 35.108 67.424 35.108C65.2678 35.108 63.8786 33.3097 63.8786 30.4545C63.8786 27.6506 65.2933 25.8864 67.424 25.8864C69.0433 25.8864 70.032 26.9091 70.3047 28.1364H72.7848C72.5121 25.4943 70.3558 23.7386 67.3814 23.7386C63.6911 23.7386 61.3047 26.517 61.3047 30.5142C61.3047 34.4602 63.6058 37.2642 67.407 37.2642ZM80.902 37.2642C83.7571 37.2642 85.777 35.858 86.3565 33.7273L83.9446 33.2926C83.4844 34.5284 82.3764 35.1591 80.9276 35.1591C78.7457 35.1591 77.2798 33.7443 77.2116 31.2216H86.5185V30.3182C86.5185 25.5881 83.6889 23.7386 80.723 23.7386C77.0753 23.7386 74.6719 26.517 74.6719 30.5398C74.6719 34.6051 77.0412 37.2642 80.902 37.2642ZM77.2202 29.3125C77.3224 27.4545 78.669 25.8438 80.7401 25.8438C82.7173 25.8438 84.0128 27.3097 84.0213 29.3125H77.2202ZM89.0959 37H91.6442V23.9091H89.0959V37ZM90.3828 21.8892C91.2607 21.8892 91.9936 21.2074 91.9936 20.3722C91.9936 19.5369 91.2607 18.8466 90.3828 18.8466C89.4964 18.8466 88.772 19.5369 88.772 20.3722C88.772 21.2074 89.4964 21.8892 90.3828 21.8892ZM94.8224 37H97.3707V29.0057C97.3707 27.2926 98.6918 26.0568 100.499 26.0568C101.027 26.0568 101.624 26.1506 101.828 26.2102V23.7727C101.572 23.7386 101.07 23.7131 100.746 23.7131C99.2116 23.7131 97.8991 24.5824 97.4219 25.9886H97.2855V23.9091H94.8224V37ZM107.476 37.2898C109.641 37.2898 110.859 36.1903 111.345 35.2102H111.447V37H113.936V28.3068C113.936 24.4972 110.936 23.7386 108.857 23.7386C106.487 23.7386 104.305 24.6932 103.453 27.0795L105.848 27.625C106.223 26.696 107.178 25.8011 108.891 25.8011C110.536 25.8011 111.379 26.6619 111.379 28.1449V28.2045C111.379 29.1335 110.425 29.1165 108.072 29.3892C105.592 29.679 103.053 30.3267 103.053 33.3011C103.053 35.875 104.987 37.2898 107.476 37.2898ZM108.03 35.2443C106.589 35.2443 105.55 34.5966 105.55 33.3352C105.55 31.9716 106.76 31.4858 108.234 31.2898C109.061 31.179 111.021 30.9574 111.388 30.5909V32.2784C111.388 33.8295 110.152 35.2443 108.03 35.2443ZM128.824 37.2642C131.679 37.2642 133.699 35.858 134.278 33.7273L131.866 33.2926C131.406 34.5284 130.298 35.1591 128.849 35.1591C126.668 35.1591 125.202 33.7443 125.134 31.2216H134.44V30.3182C134.44 25.5881 131.611 23.7386 128.645 23.7386C124.997 23.7386 122.594 26.517 122.594 30.5398C122.594 34.6051 124.963 37.2642 128.824 37.2642ZM125.142 29.3125C125.244 27.4545 126.591 25.8438 128.662 25.8438C130.639 25.8438 131.935 27.3097 131.943 29.3125H125.142ZM139.566 29.2273C139.566 27.1392 140.844 25.946 142.617 25.946C144.347 25.946 145.396 27.0795 145.396 28.9801V37H147.944V28.6733C147.944 25.4347 146.163 23.7386 143.487 23.7386C141.518 23.7386 140.231 24.6506 139.626 26.0398H139.464V23.9091H137.018V37H139.566V29.2273ZM157.222 23.9091H154.538V20.7727H151.989V23.9091H150.072V25.9545H151.989V33.6847C151.981 36.0625 153.796 37.2131 155.808 37.1705C156.617 37.1619 157.163 37.0085 157.461 36.8977L157.001 34.7926C156.83 34.8267 156.515 34.9034 156.106 34.9034C155.279 34.9034 154.538 34.6307 154.538 33.1562V25.9545H157.222V23.9091ZM159.791 37H162.339V29.0057C162.339 27.2926 163.661 26.0568 165.467 26.0568C165.996 26.0568 166.592 26.1506 166.797 26.2102V23.7727C166.541 23.7386 166.038 23.7131 165.714 23.7131C164.18 23.7131 162.868 24.5824 162.391 25.9886H162.254V23.9091H159.791V37ZM173.925 37.2642C176.781 37.2642 178.8 35.858 179.38 33.7273L176.968 33.2926C176.508 34.5284 175.4 35.1591 173.951 35.1591C171.769 35.1591 170.303 33.7443 170.235 31.2216H179.542V30.3182C179.542 25.5881 176.712 23.7386 173.746 23.7386C170.099 23.7386 167.695 26.517 167.695 30.5398C167.695 34.6051 170.065 37.2642 173.925 37.2642ZM170.244 29.3125C170.346 27.4545 171.692 25.8438 173.763 25.8438C175.741 25.8438 177.036 27.3097 177.045 29.3125H170.244ZM187.608 42.1818C190.94 42.1818 193.514 40.6562 193.514 37.2898V23.9091H191.017V26.0312H190.83C190.378 25.2216 189.474 23.7386 187.037 23.7386C183.875 23.7386 181.548 26.2358 181.548 30.4034C181.548 34.5795 183.926 36.804 187.02 36.804C189.423 36.804 190.352 35.4489 190.812 34.6136H190.974V37.1875C190.974 39.2415 189.568 40.1278 187.634 40.1278C185.511 40.1278 184.685 39.0625 184.233 38.3125L182.043 39.2159C182.733 40.8182 184.48 42.1818 187.608 42.1818ZM187.582 34.6903C185.307 34.6903 184.122 32.9432 184.122 30.3693C184.122 27.8551 185.281 25.9034 187.582 25.9034C189.807 25.9034 191 27.7188 191 30.3693C191 33.071 189.781 34.6903 187.582 34.6903ZM200.491 37.2898C202.656 37.2898 203.875 36.1903 204.361 35.2102H204.463V37H206.952V28.3068C206.952 24.4972 203.952 23.7386 201.872 23.7386C199.503 23.7386 197.321 24.6932 196.469 27.0795L198.864 27.625C199.239 26.696 200.193 25.8011 201.906 25.8011C203.551 25.8011 204.395 26.6619 204.395 28.1449V28.2045C204.395 29.1335 203.44 29.1165 201.088 29.3892C198.608 29.679 196.068 30.3267 196.068 33.3011C196.068 35.875 198.003 37.2898 200.491 37.2898ZM201.045 35.2443C199.605 35.2443 198.565 34.5966 198.565 33.3352C198.565 31.9716 199.776 31.4858 201.25 31.2898C202.077 31.179 204.037 30.9574 204.403 30.5909V32.2784C204.403 33.8295 203.168 35.2443 201.045 35.2443Z" fill="white"/>
<path d="M82.1143 70H89.478V68.4886H83.87V64.9261H89.0291V63.4205H83.87V59.875H89.4098V58.3636H82.1143V70ZM93.0675 58.3636H91.3686V70H93.0675V58.3636ZM98.7791 70.1761C101.239 70.1761 102.847 68.375 102.847 65.6761C102.847 62.9602 101.239 61.1591 98.7791 61.1591C96.3189 61.1591 94.7109 62.9602 94.7109 65.6761C94.7109 68.375 96.3189 70.1761 98.7791 70.1761ZM98.7848 68.75C97.1768 68.75 96.4268 67.3466 96.4268 65.6705C96.4268 64 97.1768 62.5795 98.7848 62.5795C100.381 62.5795 101.131 64 101.131 65.6705C101.131 67.3466 100.381 68.75 98.7848 68.75ZM106.192 64.8182C106.192 63.4261 107.045 62.6307 108.227 62.6307C109.38 62.6307 110.079 63.3864 110.079 64.6534V70H111.778V64.4489C111.778 62.2898 110.59 61.1591 108.806 61.1591C107.494 61.1591 106.636 61.767 106.232 62.6932H106.124V61.2727H104.494V70H106.192V64.8182ZM117.927 70H124.955V68.4886H119.683V58.3636H117.927V70ZM126.572 70H128.271V61.2727H126.572V70ZM127.43 59.9261C128.015 59.9261 128.504 59.4716 128.504 58.9148C128.504 58.358 128.015 57.8977 127.43 57.8977C126.839 57.8977 126.356 58.358 126.356 58.9148C126.356 59.4716 126.839 59.9261 127.43 59.9261ZM130.306 70H132.005V64.6193C132.005 63.4432 132.829 62.625 133.795 62.625C134.738 62.625 135.391 63.25 135.391 64.1989V70H137.085V64.4375C137.085 63.3864 137.727 62.625 138.835 62.625C139.732 62.625 140.471 63.125 140.471 64.3068V70H142.17V64.1477C142.17 62.1534 141.056 61.1591 139.477 61.1591C138.221 61.1591 137.278 61.7614 136.857 62.6932H136.766C136.386 61.7386 135.585 61.1591 134.42 61.1591C133.266 61.1591 132.408 61.733 132.045 62.6932H131.937V61.2727H130.306V70ZM146.737 70.1932C148.18 70.1932 148.992 69.4602 149.316 68.8068H149.384V70H151.043V64.2045C151.043 61.6648 149.043 61.1591 147.657 61.1591C146.077 61.1591 144.623 61.7955 144.055 63.3864L145.651 63.75C145.901 63.1307 146.538 62.5341 147.68 62.5341C148.776 62.5341 149.339 63.108 149.339 64.0966V64.1364C149.339 64.7557 148.702 64.7443 147.134 64.9261C145.481 65.1193 143.788 65.5511 143.788 67.5341C143.788 69.25 145.077 70.1932 146.737 70.1932ZM147.106 68.8295C146.146 68.8295 145.452 68.3977 145.452 67.5568C145.452 66.6477 146.259 66.3239 147.242 66.1932C147.793 66.1193 149.1 65.9716 149.344 65.7273V66.8523C149.344 67.8864 148.521 68.8295 147.106 68.8295Z" fill="white"/>
</svg>
