<svg width="121" height="131" viewBox="0 0 121 131" fill="none" xmlns="http://www.w3.org/2000/svg">
<g clip-path="url(#clip0)">
<path fill-rule="evenodd" clip-rule="evenodd" d="M69.7184 78.601V95.6889H50.8255V78.601C48.7973 80.094 47.1651 82.0568 46.0695 84.3197C44.974 86.5825 44.4472 89.0773 44.537 91.588C44.6078 95.748 46.3221 99.7124 49.308 102.621C52.2938 105.53 56.3119 107.149 60.488 107.126C64.6641 107.104 68.6638 105.442 71.6178 102.501C74.5717 99.5595 76.2403 95.5767 76.2657 91.4162C76.3523 88.8878 75.7951 86.3787 74.6452 84.123C73.4953 81.8672 71.7912 79.9384 69.6908 78.5164L69.7184 78.601ZM95.7566 84.5806C108.363 54.393 88.6106 24.8616 60.0232 25.2896C32.043 26.3405 12.3778 54.3649 25.0662 84.5525C11.4311 26.0842 104.536 14.7786 95.7893 84.6627L95.7566 84.5806ZM90.041 86.5747C99.9303 65.9575 81.8641 40.1271 61.4578 41.4906C37.9308 39.33 19.892 67.5825 30.9853 86.5183C25.7242 65.0733 44.5045 48.4134 62.3974 49.8077C76.349 51.0047 93.0117 62.2539 90.0711 86.6593L90.041 86.5747ZM83.353 90.5628C92.6712 74.1849 77.6368 53.9957 61.7995 55.0492C43.6776 53.3678 26.7851 74.2156 37.5903 90.6755C36.6494 87.0731 36.5912 83.2981 37.422 79.669C38.2528 76.0398 39.9481 72.663 42.3638 69.8233C44.7795 66.9836 47.8455 64.7644 51.3028 63.3529C54.7601 61.9414 58.5078 61.379 62.2291 61.7131C73.0034 62.6537 85.7502 71.8525 83.3757 90.6191L83.353 90.5628ZM41.59 91.9289C37.9883 78.2601 44.4453 67.0109 60.684 66.2984C76.9432 67.2108 82.9511 79.9953 79.0921 91.9289C78.0373 80.0825 71.5175 73.0751 61.5407 71.9935C49.4749 71.6218 42.302 80.3926 41.6176 92.0109L41.59 91.9289ZM-0.00219727 38.3611L60.3976 0L120.998 38.4201H97.1886C110.937 58.6938 106.25 78.2883 97.1886 90.8473H120.772L60.4554 131L0.311848 90.819H23.7497C13.4591 76.5787 10.8607 58.0121 23.7497 38.4483L-0.00219727 38.3611Z" fill="#016AE7"/>
</g>
<defs>
<clipPath id="clip0">
<rect width="121" height="131" fill="white"/>
</clipPath>
</defs>
</svg>
